<?xml version="1.0" encoding="utf-8"?>
<!-- Generator: Adobe Illustrator 25.2.1, SVG Export Plug-In . SVG Version: 6.00 Build 0)  -->
<svg version="1.1" id="Layer_1" xmlns="http://www.w3.org/2000/svg" xmlns:xlink="http://www.w3.org/1999/xlink" x="0px" y="0px"
	 viewBox="0 0 1125 2436" style="enable-background:new 0 0 1125 2436;" xml:space="preserve">
<style type="text/css">
	.st0{display:none;}
	.st1{display:none;stroke:#FFFFFF;stroke-miterlimit:10;}
	.st2{display:none;fill:none;stroke:#FFFFFF;stroke-miterlimit:10;}
	.st3{fill:#FFFFFF;}
	.st4{fill:none;stroke:#FFFFFF;stroke-miterlimit:10;}
</style>
<rect x="0.97" y="0.35" class="st0" width="1124" height="2436"/>
<circle class="st1" cx="608" cy="1178" r="339.5"/>
<circle class="st2" cx="268.5" cy="740.5" r="139"/>
<circle class="st2" cx="901.5" cy="1627.5" r="100"/>
<circle class="st3" cx="622" cy="838" r="5"/>
<circle class="st3" cx="457" cy="874" r="5"/>
<circle class="st3" cx="312" cy="1009" r="5"/>
<circle class="st3" cx="269" cy="1157" r="5"/>
<circle class="st3" cx="354" cy="1402" r="5"/>
<circle class="st3" cx="487" cy="1498" r="5"/>
<circle class="st3" cx="657" cy="1513" r="5"/>
<circle class="st3" cx="835" cy="1436" r="5"/>
<circle class="st3" cx="926" cy="1293" r="5"/>
<circle class="st3" cx="931" cy="1069" r="5"/>
<circle class="st3" cx="817" cy="912" r="5"/>
<circle class="st3" cx="340" cy="864" r="5"/>
<circle class="st3" cx="408" cy="741" r="5"/>
<circle class="st3" cx="199" cy="859" r="5"/>
<circle class="st3" cx="135" cy="761" r="5"/>
<circle class="st3" cx="145" cy="687" r="5"/>
<circle class="st3" cx="222" cy="611" r="5"/>
<circle class="st3" cx="375" cy="646" r="5"/>
<circle class="st3" cx="830" cy="1567" r="5"/>
<circle class="st3" cx="911" cy="1528" r="5"/>
<circle class="st3" cx="992" cy="1588" r="5"/>
<circle class="st3" cx="987" cy="1684" r="5"/>
<circle class="st3" cx="897" cy="1733" r="5"/>
<circle class="st3" cx="812" cy="1674" r="5"/>
<line class="st4" x1="269" y1="1173" x2="345" y2="1388"/>
<line class="st4" x1="269.5" y1="1145.5" x2="307.5" y2="1023.5"/>
<line class="st4" x1="321.5" y1="993.5" x2="441.5" y2="884.5"/>
<line class="st4" x1="472.5" y1="869.5" x2="603.5" y2="838.5"/>
<line class="st4" x1="637.5" y1="838.5" x2="802.5" y2="907.5"/>
<line class="st4" x1="830.5" y1="921.5" x2="926.5" y2="1057.5"/>
<line class="st4" x1="936.5" y1="1084.5" x2="926.5" y2="1280.5"/>
<line class="st4" x1="916.5" y1="1307.5" x2="845.5" y2="1425.5"/>
<line class="st4" x1="825.5" y1="1445.5" x2="672.5" y2="1512.5"/>
<line class="st4" x1="642.5" y1="1512.5" x2="505.5" y2="1502.5"/>
<line class="st4" x1="474.5" y1="1492.5" x2="367.5" y2="1412.5"/>
<line class="st4" x1="812.5" y1="1657.5" x2="825.5" y2="1582.5"/>
<line class="st4" x1="840.5" y1="1557.5" x2="897.5" y2="1532.5"/>
<line class="st4" x1="926.5" y1="1532.5" x2="982.5" y2="1577.5"/>
<line class="st4" x1="992.5" y1="1601.5" x2="987.5" y2="1668.5"/>
<line class="st4" x1="974.5" y1="1688.5" x2="911.5" y2="1727.5"/>
<line class="st4" x1="881.5" y1="1727.5" x2="825.5" y2="1683.5"/>
<line class="st4" x1="354.5" y1="853.5" x2="403.5" y2="755.5"/>
<line class="st4" x1="403.5" y1="725.5" x2="381.5" y2="662.5"/>
<line class="st4" x1="359.5" y1="635.5" x2="243.5" y2="610.5"/>
<line class="st4" x1="204.5" y1="615.5" x2="154.5" y2="670.5"/>
<line class="st4" x1="140.5" y1="699.5" x2="135.5" y2="745.5"/>
<line class="st4" x1="140.5" y1="773.5" x2="186.5" y2="842.5"/>
<line class="st4" x1="217.5" y1="863.5" x2="317.5" y2="863.5"/>
</svg>
